<svg xmlns="http://www.w3.org/2000/svg" viewBox="0 0 899 185"><path d="M24.53,4.05A20.25,20.25,0,0,0,4,24v.56c0,11.56,8.73,20.76,20.53,20.76,12,0,21.23-9.2,21.23-20.76C45.76,13.25,36.56,4.05,24.53,4.05Z"/><rect x="7.3" y="61.15" width="34.68" height="118.92"/><path d="M131.64,59.26c-16.27,0-29.25,7.31-36.33,17.7V61.15H60.62V180.06H95.31V127.92c0-24.54,8.49-38,25-38,12.5,0,20.53,8.73,20.53,21.71v68.42h34.44V102.44C175.29,76.25,157.83,59.26,131.64,59.26Z"/><path d="M219.18,92.53c0-5.19,5.43-8.5,13.22-8.5a21.62,21.62,0,0,1,20.76,15.81L281,88.28c-5.43-17.22-25.48-29-49.78-29-26.19,0-42.47,15.57-42.47,34.21,0,45.07,63,32.56,63,51.2,0,6.61-6.13,11.09-15.33,11.09-13.22,0-22.42-9.2-25.25-20.29l-27.84,10.85C189.46,164.28,207.4,182,236.42,182c27.84,0,46.72-17.46,46.72-38C283.13,95.83,219.18,111.4,219.18,92.53Z"/><path d="M359.34,151.75c-8.49,0-14.16-6.13-14.16-16.75V89.93H374V61.15H345.18V26.7h0V13.13H310.44V37.34h.06V61.15H291.62V89.93H310.5v49.55c0,28.79,19.58,42.47,45.3,42.47a61.43,61.43,0,0,0,19.35-3.07l-2.36-30C368.78,151,363.59,151.75,359.34,151.75Z"/><path d="M465.75,72.47c-6.6-8-17.69-13.21-32.09-13.21-34.44,0-55.44,24.07-55.44,61.35s21,61.34,55.92,61.34c13.45,0,25.48-5.19,31.61-13.68v11.79h34.69V61.15H465.75Zm-26,80c-16.52,0-27.84-12.74-27.84-31.85s11.32-31.86,27.84-31.86c17,0,28.08,12.74,28.08,31.86s-11,31.84-28,31.84Z"/><path d="M544.33,92.53c0-5.19,5.42-8.5,13.21-8.5A21.59,21.59,0,0,1,578.3,99.84l27.84-11.56c-5.42-17.22-25.48-29-49.78-29-26.19,0-42.47,15.57-42.47,34.21,0,45.07,63,32.56,63,51.2,0,6.61-6.14,11.09-15.34,11.09-13.21,0-22.41-9.2-25.25-20.29l-27.84,10.85C514.6,164.26,532.53,182,561.55,182c27.84,0,46.72-17.46,46.72-38C608.27,95.83,544.33,111.4,544.33,92.53Z"/><rect x="619.6" y="61.15" width="34.68" height="118.92"/><path d="M636.82,4.05a20.25,20.25,0,0,0-20.53,20v.56c0,11.56,8.73,20.76,20.53,20.76,12,0,21.24-9.2,21.24-20.76C658.06,13.25,648.85,4.05,636.82,4.05Z"/><polygon points="766.39 87.57 766.39 61.15 670.48 61.15 670.48 89.93 725.38 89.93 666.31 153.64 666.31 180.06 768.24 180.06 768.24 151.28 708.01 151.28 766.39 87.57"/><path d="M894,117.54c0-26.43-18.17-58.28-61.11-58.28-41.06,0-59,31.85-59,61.35S794,182,835,182c28.32,0,49.55-13,56.63-35.39l-32.56-8.73c-2.6,9.91-11.33,15.34-23.12,15.34-14.63,0-24.54-8-27.84-22.65h85.41C893.76,127.92,894,122.26,894,117.54ZM808.59,106c3.3-13.92,11.8-21,24.3-21,15.34,0,22.89,9,24.07,21Z"/></svg>
